<?xml version="1.0" encoding="utf-8"?>
<!-- Generator: Adobe Illustrator 25.4.1, SVG Export Plug-In . SVG Version: 6.00 Build 0)  -->
<svg version="1.1" id="Layer_1" xmlns="http://www.w3.org/2000/svg" xmlns:xlink="http://www.w3.org/1999/xlink" x="0px" y="0px"
	 viewBox="0 0 143.7 163.3" style="enable-background:new 0 0 143.7 163.3;" xml:space="preserve">
<style type="text/css">
	.st0{fill:#FFFFFF;}
</style>
<polygon class="st0" points="97.7,15.6 78.7,26.5 72.3,30.2 66,33.9 59.6,37.5 40.6,48.5 34.3,52.2 27.9,55.8 27.9,136.4 8.9,125.4 
	2.6,121.7 2.6,41.2 8.9,37.5 27.9,26.5 34.3,22.9 40.6,19.2 47,15.6 66,4.6 72.3,0.9 78.7,4.6 "/>
<path class="st0" d="M135.8,37.5l-19-11l-6.3-3.7l-6.3,3.7l-19,11l-6.3,3.7l-6.3,3.7L66,48.5l-19,11l-6.3,3.7v36.6l6.3,3.7l19,11
	l6.3,3.7l6.3-3.7l19-11l6.3-3.7l6.3-3.7l6.3-3.7v14.6l-6.3,3.7l-6.3,3.7l-19,11l-6.3,3.7l-6.3,3.7l-6.3-3.7l-6.3-3.7l-19-11v29.3
	l6.3,3.7l19,11l6.3,3.7l6.3-3.7l19-11l6.3-3.7l6.3-3.7l6.3-3.7l19-11l6.3-3.7V41.2L135.8,37.5z M116.7,63.2l-6.3,3.7l-6.3,3.7
	l-19,11l-6.3,3.7l-6.3,3.7L66,85.1v-7.3l6.3-3.7l6.3-3.7l19-11l6.3-3.7l6.3-3.7l6.3,3.7V63.2z"/>
</svg>
